<?xml version="1.0" encoding="utf-8"?>
<!-- Generator: Adobe Illustrator 25.0.0, SVG Export Plug-In . SVG Version: 6.00 Build 0)  -->
<svg version="1.1" id="Layer_1" xmlns="http://www.w3.org/2000/svg" xmlns:xlink="http://www.w3.org/1999/xlink" x="0px" y="0px"
	 viewBox="0 0 512 512" style="enable-background:new 0 0 512 512;" xml:space="preserve">
<style type="text/css">
	.st0{fill:url(#SVGID_1_);}
	.st1{fill:url(#SVGID_2_);}
	.st2{fill:url(#SVGID_3_);}
	.st3{fill:url(#SVGID_4_);}
	.st4{fill:url(#SVGID_5_);}
	.st5{fill:url(#SVGID_6_);}
	.st6{fill:url(#SVGID_7_);}
	.st7{fill:url(#SVGID_8_);}
	.st8{fill:url(#SVGID_9_);}
	.st9{clip-path:url(#SVGID_10_);}
	.st10{fill-rule:evenodd;clip-rule:evenodd;fill:#136F22;}
	.st11{clip-path:url(#SVGID_12_);fill:url(#SVGID_13_);}
	.st12{clip-path:url(#SVGID_14_);fill:url(#SVGID_15_);}
	.st13{clip-path:url(#SVGID_16_);fill:url(#SVGID_17_);}
	.st14{clip-path:url(#SVGID_18_);fill:url(#SVGID_19_);}
	.st15{clip-path:url(#SVGID_20_);fill:url(#SVGID_21_);}
	.st16{clip-path:url(#SVGID_22_);}
	.st17{fill-rule:evenodd;clip-rule:evenodd;fill:#000003;}
	.st18{clip-path:url(#SVGID_24_);fill:url(#SVGID_25_);}
	.st19{clip-path:url(#SVGID_26_);fill:url(#SVGID_27_);}
	.st20{clip-path:url(#SVGID_28_);fill:url(#SVGID_29_);}
	.st21{clip-path:url(#SVGID_30_);}
	.st22{clip-path:url(#SVGID_31_);fill:url(#SVGID_32_);}
	.st23{clip-path:url(#SVGID_33_);fill:url(#SVGID_34_);}
	.st24{clip-path:url(#SVGID_35_);fill:url(#SVGID_36_);}
</style>
<g>
	<linearGradient id="SVGID_1_" gradientUnits="userSpaceOnUse" x1="391.2777" y1="256" x2="429.4734" y2="256">
		<stop  offset="0" style="stop-color:#B70202"/>
		<stop  offset="1" style="stop-color:#B70202;stop-opacity:0"/>
	</linearGradient>
	<path class="st0" d="M429.5,271.4h-27.4c-6,0-10.8-4.9-10.8-10.8v-9.2c0-6,4.9-10.8,10.8-10.8h27.4V271.4z"/>
	<g>
		<g>
			<g>
				<linearGradient id="SVGID_2_" gradientUnits="userSpaceOnUse" x1="323.8654" y1="256" x2="200.1808" y2="256">
					<stop  offset="0" style="stop-color:#B70202"/>
					<stop  offset="1" style="stop-color:#4A0101"/>
				</linearGradient>
				<path class="st1" d="M221.9,245.8v-5.2h-19.6c-1.1,0-2,0.4-2.8,1.2c-0.8,0.8-1.2,1.7-1.2,2.8v26.9h5.7v-15h17.8v-5.2h-17.8v-5.5
					H221.9z"/>
			</g>
			<g>
				<linearGradient id="SVGID_3_" gradientUnits="userSpaceOnUse" x1="323.8654" y1="258.2452" x2="200.1808" y2="258.2452">
					<stop  offset="0" style="stop-color:#B70202"/>
					<stop  offset="1" style="stop-color:#4A0101"/>
				</linearGradient>
				<path class="st2" d="M229.1,265.9V245h-5.9v22.5c0,1.1,0.4,2,1.1,2.8c0.8,0.8,1.7,1.1,2.8,1.1H244v-5.6H229.1z"/>
			</g>
			<g>
				<linearGradient id="SVGID_4_" gradientUnits="userSpaceOnUse" x1="323.8654" y1="258.2452" x2="200.1808" y2="258.2452">
					<stop  offset="0" style="stop-color:#B70202"/>
					<stop  offset="1" style="stop-color:#4A0101"/>
				</linearGradient>
				<path class="st3" d="M262.5,245h-7.3l-10.6,26.4h6.7l2.4-5.9H264l2.4,5.9h6.7L262.5,245z M255.9,259.9l2.9-7.3l2.9,7.3H255.9z"
					/>
			</g>
			<g>
				<linearGradient id="SVGID_5_" gradientUnits="userSpaceOnUse" x1="323.8654" y1="258.2452" x2="200.1808" y2="258.2452">
					<stop  offset="0" style="stop-color:#B70202"/>
					<stop  offset="1" style="stop-color:#4A0101"/>
				</linearGradient>
				<path class="st4" d="M290.5,245v15.2L279.6,245h-5.9v26.4h5.9v-15.2l10.9,15.2h5.9V245H290.5z"/>
			</g>
			<g>
				<linearGradient id="SVGID_6_" gradientUnits="userSpaceOnUse" x1="323.8654" y1="258.2452" x2="200.1808" y2="258.2452">
					<stop  offset="0" style="stop-color:#B70202"/>
					<stop  offset="1" style="stop-color:#4A0101"/>
				</linearGradient>
				<path class="st5" d="M320.9,250.6V245h-18.8c-1.1,0-2,0.4-2.8,1.2c-0.8,0.8-1.1,1.7-1.1,2.8v18.6c0,1.1,0.4,2,1.1,2.8
					c0.8,0.8,1.7,1.1,2.8,1.1h18.8V254h-13.4v5.6h7.4v6.3h-10.8v-15.2H320.9z"/>
			</g>
			<g>
				<linearGradient id="SVGID_7_" gradientUnits="userSpaceOnUse" x1="407.3867" y1="256" x2="329.1778" y2="256">
					<stop  offset="0" style="stop-color:#E7E4E4"/>
					<stop  offset="3.569043e-02" style="stop-color:#D6D3D3"/>
					<stop  offset="0.1048" style="stop-color:#BBBABA"/>
					<stop  offset="0.1843" style="stop-color:#A5A4A4"/>
					<stop  offset="0.2771" style="stop-color:#949494"/>
					<stop  offset="0.3919" style="stop-color:#898888"/>
					<stop  offset="0.5529" style="stop-color:#828282"/>
					<stop  offset="1" style="stop-color:#808080"/>
				</linearGradient>
				<path class="st6" d="M322.2,240.6v5.2h10.5v25.7h5.7v-25.7h9.6v-5.2H322.2z"/>
			</g>
			<g>
				<linearGradient id="SVGID_8_" gradientUnits="userSpaceOnUse" x1="407.3867" y1="256" x2="329.1778" y2="256">
					<stop  offset="0" style="stop-color:#E7E4E4"/>
					<stop  offset="3.569043e-02" style="stop-color:#D6D3D3"/>
					<stop  offset="0.1048" style="stop-color:#BBBABA"/>
					<stop  offset="0.1843" style="stop-color:#A5A4A4"/>
					<stop  offset="0.2771" style="stop-color:#949494"/>
					<stop  offset="0.3919" style="stop-color:#898888"/>
					<stop  offset="0.5529" style="stop-color:#828282"/>
					<stop  offset="1" style="stop-color:#808080"/>
				</linearGradient>
				<path class="st7" d="M372.2,245.8v-5.2h-19.6c-1.1,0-2,0.4-2.8,1.2c-0.8,0.8-1.2,1.7-1.2,2.8v23c0,1.1,0.4,2,1.2,2.8
					c0.8,0.8,1.7,1.2,2.8,1.2h19.6v-5.2h-17.8v-9.8h17.8v-5.2h-17.8v-5.5H372.2z"/>
			</g>
			<g>
				<linearGradient id="SVGID_9_" gradientUnits="userSpaceOnUse" x1="407.3867" y1="256" x2="329.1778" y2="256">
					<stop  offset="0" style="stop-color:#E7E4E4"/>
					<stop  offset="3.569043e-02" style="stop-color:#D6D3D3"/>
					<stop  offset="0.1048" style="stop-color:#BBBABA"/>
					<stop  offset="0.1843" style="stop-color:#A5A4A4"/>
					<stop  offset="0.2771" style="stop-color:#949494"/>
					<stop  offset="0.3919" style="stop-color:#898888"/>
					<stop  offset="0.5529" style="stop-color:#828282"/>
					<stop  offset="1" style="stop-color:#808080"/>
				</linearGradient>
				<polygon class="st8" points="403.8,271.4 396.6,271.4 396.1,270.7 391.1,264 388.7,260.6 387.4,262.4 381.3,270.7 380.8,271.4 
					373.6,271.4 374.1,270.7 384.1,257 385.1,255.7 374.1,240.6 381.3,240.6 388.7,250.7 396.1,240.6 403.3,240.6 392.3,255.7 
					396.7,261.7 403.3,270.7 				"/>
			</g>
		</g>
		<g>
			<g>
				<g>
					<g>
						<g>
							<g>
								<g>
									<defs>
										<rect id="SVGID_191_" x="122.9" y="233.1" width="45.3" height="45.3"/>
									</defs>
									<clipPath id="SVGID_10_">
										<use xlink:href="#SVGID_191_"  style="overflow:visible;"/>
									</clipPath>
									<g class="st9">
										<defs>
											<rect id="SVGID_192_" x="122.9" y="233.1" width="45.3" height="45.3"/>
										</defs>
										<clipPath id="SVGID_11_">
											<use xlink:href="#SVGID_192_"  style="overflow:visible;"/>
										</clipPath>
										<g style="clip-path:url(#SVGID_11_);">
											
												<image style="overflow:visible;" width="600" height="600" xlink:href="1DB867E5.png"  transform="matrix(7.556915e-02 0 0 7.556915e-02 122.8564 233.1428)">
											</image>
										</g>
									</g>
								</g>
								<path class="st10" d="M145.6,241.8c7.9,0,14.3,6.4,14.3,14.3c0,7.9-6.4,14.3-14.3,14.3c-7.9,0-14.3-6.4-14.3-14.3
									C131.4,248.2,137.7,241.8,145.6,241.8 M145.6,239c9.4,0,17,7.6,17,17s-7.6,17-17,17c-9.4,0-17-7.6-17-17
									S136.2,239,145.6,239z"/>
								<g>
									<defs>
										<path id="SVGID_190_" d="M151.6,222.5c2,0,3.7,1.6,3.7,3.7c0,2-1.6,3.7-3.7,3.7c-2,0-3.7-1.6-3.7-3.7
											C147.9,224.1,149.6,222.5,151.6,222.5 M145.5,216.1c22,0,39.8,17.8,39.8,39.8c0,1.2-0.1,2.4-0.2,3.6
											c-10.6,6.6-18.8-1.7-18.8-1.7l0,0c0.1-0.6,0.1-1.3,0.1-1.9c0-11-8.5-20-19.3-20.8l0,0c-7.6-7.4-3.9-15.6-1.8-18.9
											C145.3,216.1,145.4,216.1,145.5,216.1z"/>
									</defs>
									<clipPath id="SVGID_12_">
										<use xlink:href="#SVGID_190_"  style="overflow:visible;"/>
									</clipPath>
									<linearGradient id="SVGID_13_" gradientUnits="userSpaceOnUse" x1="163.5692" y1="237.927" x2="158.7849" y2="250.7493">
										<stop  offset="0" style="stop-color:#B70202"/>
										<stop  offset="1" style="stop-color:#4A0101"/>
									</linearGradient>
									<rect x="139.5" y="216.1" class="st11" width="45.8" height="50"/>
								</g>
								<g>
									<defs>
										<path id="SVGID_189_" d="M151.6,222.4c2,0,3.7,1.6,3.7,3.7c0,2-1.6,3.7-3.7,3.7c-2,0-3.7-1.6-3.7-3.7
											C148,224.1,149.6,222.4,151.6,222.4 M184.2,246.6c-1.3-5.6-4.1-12.2-9.8-18.2c-6.2-6.5-15-12.1-29.1-12.3
											c0,0-7.3,9.9,1.8,18.9c0,0,7.5,0.5,13.2,6.1C159.8,240.6,171.9,231.8,184.2,246.6z"/>
									</defs>
									<clipPath id="SVGID_14_">
										<use xlink:href="#SVGID_189_"  style="overflow:visible;"/>
									</clipPath>
									<linearGradient id="SVGID_15_" gradientUnits="userSpaceOnUse" x1="155.9939" y1="223.8987" x2="167.0176" y2="240.1551">
										<stop  offset="0" style="stop-color:#B70202"/>
										<stop  offset="1" style="stop-color:#4A0101"/>
									</linearGradient>
									<rect x="137.9" y="216.1" class="st12" width="46.2" height="30.5"/>
								</g>
								<g>
									<defs>
										<path id="SVGID_188_" d="M184.2,265.2c-3.5,14.6-15.1,26.1-29.8,29.4c1.1-2.8,3.3-10.9-2.1-19c6.1-2.1,10.9-6.8,13-12.8
											C165.2,262.8,172.6,269.3,184.2,265.2"/>
									</defs>
									<clipPath id="SVGID_16_">
										<use xlink:href="#SVGID_188_"  style="overflow:visible;"/>
									</clipPath>
									<linearGradient id="SVGID_17_" gradientUnits="userSpaceOnUse" x1="158.3362" y1="279.1826" x2="173.7468" y2="278.398">
										<stop  offset="0" style="stop-color:#E7E4E4"/>
										<stop  offset="0.2297" style="stop-color:#D4D2D2"/>
										<stop  offset="0.6922" style="stop-color:#A4A3A3"/>
										<stop  offset="1" style="stop-color:#808080"/>
									</linearGradient>
									<rect x="152.2" y="262.8" class="st13" width="31.9" height="31.8"/>
								</g>
								<g>
									<defs>
										<path id="SVGID_187_" d="M115.6,251.5c2,0,3.7,1.6,3.7,3.7c0,2-1.6,3.7-3.7,3.7c-2,0-3.7-1.6-3.7-3.7
											C111.9,253.2,113.6,251.5,115.6,251.5 M141.6,282.5c2,0,3.7,1.6,3.7,3.7c0,2-1.6,3.7-3.7,3.7c-2,0-3.7-1.6-3.7-3.7
											C137.9,284.1,139.5,282.5,141.6,282.5z M148.4,295.5c-1,0.1-1.9,0.1-2.9,0.1c-22,0-39.8-17.8-39.8-39.8
											c0-20,14.8-36.6,34.1-39.4c-1.5,3.3-3.7,10.9,1.5,18.9c-9.5,1.9-16.7,10.4-16.7,20.5c0,11.5,9.3,20.9,20.9,20.9
											c0.5,0,1,0,1.5-0.1l0,0C147.1,276.6,156,284.3,148.4,295.5z"/>
									</defs>
									<clipPath id="SVGID_18_">
										<use xlink:href="#SVGID_187_"  style="overflow:visible;"/>
									</clipPath>
									<linearGradient id="SVGID_19_" gradientUnits="userSpaceOnUse" x1="145.0493" y1="247.0143" x2="122.5919" y2="261.3024">
										<stop  offset="0" style="stop-color:#B70202"/>
										<stop  offset="1" style="stop-color:#4A0101"/>
									</linearGradient>
									<rect x="105.8" y="216.5" class="st14" width="50.3" height="79.1"/>
								</g>
								<g>
									<defs>
										<path id="SVGID_186_" d="M141.6,282.5c2,0,3.7,1.6,3.7,3.7c0,2-1.6,3.7-3.7,3.7c-2,0-3.7-1.6-3.7-3.7
											C137.9,284.1,139.5,282.5,141.6,282.5 M148.4,295.5c-1,0.1-1.9,0.1-2.9,0.1c-20.3,0-37.1-15.2-39.5-34.9
											c4.9,6.2,13.8,11.5,22.5,7.3l0,0c3.8,5.3,10,8.7,16.9,8.7c0.5,0,1,0,1.5-0.1l0,0C147.1,276.6,156,284.3,148.4,295.5z"/>
									</defs>
									<clipPath id="SVGID_20_">
										<use xlink:href="#SVGID_186_"  style="overflow:visible;"/>
									</clipPath>
									<linearGradient id="SVGID_21_" gradientUnits="userSpaceOnUse" x1="129.5681" y1="268.8873" x2="132.0986" y2="284.6148">
										<stop  offset="0" style="stop-color:#B70202"/>
										<stop  offset="1" style="stop-color:#4A0101"/>
									</linearGradient>
									<rect x="106.1" y="260.7" class="st15" width="50" height="34.9"/>
								</g>
								<g>
									<defs>
										<rect id="SVGID_184_" x="122.7" y="233.2" width="45.6" height="45.6"/>
									</defs>
									<clipPath id="SVGID_22_">
										<use xlink:href="#SVGID_184_"  style="overflow:visible;"/>
									</clipPath>
									<g class="st16">
										<defs>
											<rect id="SVGID_185_" x="122.7" y="233.2" width="45.6" height="45.6"/>
										</defs>
										<clipPath id="SVGID_23_">
											<use xlink:href="#SVGID_185_"  style="overflow:visible;"/>
										</clipPath>
										<g style="clip-path:url(#SVGID_23_);">
											
												<image style="overflow:visible;" width="600" height="600" xlink:href="1DB867E7.png"  transform="matrix(7.603016e-02 0 0 7.603016e-02 122.7309 233.191)">
											</image>
										</g>
									</g>
								</g>
								<path class="st17" d="M145.6,241.9c7.9,0,14.3,6.4,14.3,14.3c0,7.9-6.4,14.3-14.3,14.3c-7.9,0-14.3-6.4-14.3-14.3
									C131.3,248.3,137.7,241.9,145.6,241.9 M145.6,239.1c9.4,0,17.1,7.7,17.1,17.1c0,9.4-7.7,17.1-17.1,17.1
									c-9.4,0-17.1-7.7-17.1-17.1C128.5,246.8,136.2,239.1,145.6,239.1z"/>
								<g>
									<defs>
										<path id="SVGID_183_" d="M151.7,222.4c2,0,3.7,1.6,3.7,3.7c0,2-1.6,3.7-3.7,3.7c-2,0-3.7-1.6-3.7-3.7
											C148,224.1,149.6,222.4,151.7,222.4 M145.5,216c22.1,0,40,17.9,40,40c0,1.2-0.1,2.4-0.2,3.6c-10.6,6.6-18.9-1.7-18.9-1.7
											l0,0c0.1-0.6,0.1-1.3,0.1-1.9c0-11.1-8.6-20.1-19.4-20.9l0,0c-7.6-7.4-3.9-15.7-1.9-19C145.4,216,145.4,216,145.5,216z"/>
									</defs>
									<clipPath id="SVGID_24_">
										<use xlink:href="#SVGID_183_"  style="overflow:visible;"/>
									</clipPath>
									<linearGradient id="SVGID_25_" gradientUnits="userSpaceOnUse" x1="163.6915" y1="238.0058" x2="158.8792" y2="250.9035">
										<stop  offset="0" style="stop-color:#B70202"/>
										<stop  offset="1" style="stop-color:#4A0101"/>
									</linearGradient>
									<rect x="139.5" y="216" class="st18" width="46" height="50.3"/>
								</g>
								<g>
									<defs>
										<path id="SVGID_182_" d="M151.7,222.4c2,0,3.7,1.6,3.7,3.7c0,2-1.6,3.7-3.7,3.7c-2,0-3.7-1.6-3.7-3.7
											C148,224,149.7,222.4,151.7,222.4 M184.4,246.7c-1.3-5.6-4.1-12.3-9.9-18.3c-6.2-6.6-15.1-12.1-29.2-12.4
											c0,0-7.4,10,1.9,19c0,0,7.5,0.5,13.3,6.1C159.9,240.7,172,231.8,184.4,246.7z"/>
									</defs>
									<clipPath id="SVGID_26_">
										<use xlink:href="#SVGID_182_"  style="overflow:visible;"/>
									</clipPath>
									<linearGradient id="SVGID_27_" gradientUnits="userSpaceOnUse" x1="156.071" y1="223.8905" x2="167.1613" y2="240.2467">
										<stop  offset="0" style="stop-color:#B70202"/>
										<stop  offset="1" style="stop-color:#4A0101"/>
									</linearGradient>
									<rect x="137.9" y="216" class="st19" width="46.5" height="30.7"/>
								</g>
								<g>
									<defs>
										<path id="SVGID_181_" d="M184.4,265.5c-3.6,14.7-15.2,26.2-30,29.6c1.1-2.8,3.4-10.9-2.1-19.1c6.1-2.1,10.9-6.8,13.1-12.9
											C165.4,263,172.8,269.6,184.4,265.5"/>
									</defs>
									<clipPath id="SVGID_28_">
										<use xlink:href="#SVGID_181_"  style="overflow:visible;"/>
									</clipPath>
									<linearGradient id="SVGID_29_" gradientUnits="userSpaceOnUse" x1="167.8899" y1="278.8995" x2="179.1378" y2="281.5228">
										<stop  offset="0" style="stop-color:#E7E4E4"/>
										<stop  offset="0.2297" style="stop-color:#D4D2D2"/>
										<stop  offset="0.6922" style="stop-color:#A4A3A3"/>
										<stop  offset="1" style="stop-color:#808080"/>
									</linearGradient>
									<rect x="152.3" y="263" class="st20" width="32.1" height="32"/>
								</g>
								<g>
									<defs>
										<path id="SVGID_179_" d="M184.4,265.5c-3.6,14.7-15.2,26.2-30,29.6c1.1-2.8,3.4-10.9-2.1-19.1c6.1-2.1,10.9-6.8,13.1-12.9
											C165.4,263,172.8,269.6,184.4,265.5"/>
									</defs>
									<clipPath id="SVGID_30_">
										<use xlink:href="#SVGID_179_"  style="overflow:visible;"/>
									</clipPath>
									<g class="st21">
										<defs>
											<path id="SVGID_180_" d="M144.8,301.4c2.4-4.4,8-17.2,0.8-31.8c6.9-1.3,13.1-4.7,18-9.6
												C173.4,275.1,170,297.1,144.8,301.4"/>
										</defs>
										<clipPath id="SVGID_31_">
											<use xlink:href="#SVGID_180_"  style="overflow:visible;"/>
										</clipPath>
										<linearGradient id="SVGID_32_" gradientUnits="userSpaceOnUse" x1="158.5988" y1="280.6986" x2="168.6489" y2="281.1015">
											<stop  offset="0" style="stop-color:#E7E4E4"/>
											<stop  offset="0.2297" style="stop-color:#D4D2D2"/>
											<stop  offset="0.6922" style="stop-color:#A4A3A3"/>
											<stop  offset="1" style="stop-color:#808080"/>
										</linearGradient>
										<rect x="144.8" y="260" class="st22" width="28.6" height="41.4"/>
									</g>
								</g>
								<g>
									<defs>
										<path id="SVGID_178_" d="M115.4,251.7c2,0,3.7,1.6,3.7,3.7s-1.6,3.7-3.7,3.7s-3.7-1.6-3.7-3.7S113.4,251.7,115.4,251.7
											 M141.6,282.8c2,0,3.7,1.6,3.7,3.7c0,2-1.6,3.7-3.7,3.7c-2,0-3.7-1.6-3.7-3.7C137.9,284.5,139.5,282.8,141.6,282.8z
											 M148.5,295.9c-1,0.1-1.9,0.1-2.9,0.1c-22.1,0-40-17.9-40-40c0-20.2,14.9-36.8,34.3-39.6c-1.5,3.3-3.7,11,1.5,19
											c-9.6,1.9-16.8,10.4-16.8,20.6c0,11.6,9.4,21,21,21c0.5,0,1,0,1.6-0.1l0,0C147.1,277,156.1,284.7,148.5,295.9z"/>
									</defs>
									<clipPath id="SVGID_33_">
										<use xlink:href="#SVGID_178_"  style="overflow:visible;"/>
									</clipPath>
									<linearGradient id="SVGID_34_" gradientUnits="userSpaceOnUse" x1="145.0595" y1="247.1484" x2="122.4637" y2="261.5223">
										<stop  offset="0" style="stop-color:#B70202"/>
										<stop  offset="1" style="stop-color:#4A0101"/>
									</linearGradient>
									<rect x="105.5" y="216.4" class="st23" width="50.6" height="79.6"/>
								</g>
								<g>
									<defs>
										<path id="SVGID_177_" d="M141.6,282.8c2,0,3.7,1.6,3.7,3.7c0,2-1.6,3.7-3.7,3.7c-2,0-3.7-1.6-3.7-3.7
											C137.9,284.5,139.5,282.8,141.6,282.8 M148.5,295.9c-1,0.1-1.9,0.1-2.9,0.1c-20.4,0-37.3-15.3-39.7-35.1
											c4.9,6.2,13.9,11.5,22.7,7.4l0,0c3.8,5.3,10,8.7,17,8.7c0.5,0,1,0,1.6-0.1l0,0C147.1,277,156.1,284.7,148.5,295.9z"/>
									</defs>
									<clipPath id="SVGID_35_">
										<use xlink:href="#SVGID_177_"  style="overflow:visible;"/>
									</clipPath>
									<linearGradient id="SVGID_36_" gradientUnits="userSpaceOnUse" x1="129.4832" y1="269.1537" x2="132.0294" y2="284.9757">
										<stop  offset="0" style="stop-color:#B70202"/>
										<stop  offset="1" style="stop-color:#4A0101"/>
									</linearGradient>
									<rect x="105.8" y="260.9" class="st24" width="50.3" height="35.1"/>
								</g>
							</g>
						</g>
					</g>
				</g>
			</g>
		</g>
	</g>
</g>
</svg>
